<svg xmlns="http://www.w3.org/2000/svg" viewBox="0 0 64 64" role="img" aria-label="ArcKanBan">
<title>ArcKanBan</title>
<rect x="1" y="1" width="62" height="62" rx="13" fill="#0A0F1F" stroke="#2A3550" stroke-width="1.5"/>
<g transform="translate(11.000,11.569) scale(0.06114)"><g transform="translate(-0.002768,669.061709) scale(0.100000,-0.100000)"
fill="#ffffff" stroke="none">
<path d="M2849 6680 c-8 -5 -69 -16 -135 -25 -65 -8 -153 -22 -194 -30 -41 -8
-99 -19 -128 -25 -29 -5 -68 -13 -85 -19 -18 -5 -59 -17 -92 -27 -132 -39
-230 -78 -408 -163 -377 -179 -719 -494 -874 -806 -157 -314 -185 -710 -73
-1012 24 -64 88 -195 122 -248 29 -46 171 -188 238 -237 198 -149 494 -218
732 -173 129 24 258 67 325 106 30 19 92 67 135 108 192 180 258 321 258 556
0 138 -17 230 -62 322 -41 85 -59 92 -187 68 -120 -22 -173 -16 -238 28 -66
45 -87 85 -87 167 2 123 73 259 198 378 88 84 178 139 323 198 162 65 294 94
598 131 248 29 1138 20 1165 -12 7 -9 -1 -42 -25 -111 -20 -54 -40 -108 -45
-119 -5 -11 -21 -54 -34 -95 -14 -41 -41 -120 -61 -175 -20 -55 -43 -120 -51
-145 -9 -25 -28 -72 -42 -105 -14 -33 -31 -78 -38 -100 -7 -22 -21 -62 -32
-90 -44 -112 -166 -435 -192 -505 -15 -42 -40 -107 -54 -145 -15 -39 -33 -86
-41 -105 -7 -19 -40 -105 -74 -190 -33 -85 -71 -184 -84 -220 -13 -36 -56
-148 -95 -250 -39 -102 -89 -234 -112 -295 -23 -60 -48 -126 -55 -145 -76
-200 -320 -804 -349 -865 -13 -27 -63 -140 -111 -250 -90 -208 -169 -373 -230
-485 -20 -36 -52 -94 -72 -130 -59 -109 -224 -348 -299 -434 -211 -242 -477
-396 -684 -396 -127 0 -301 83 -412 197 -63 64 -120 177 -148 295 -21 87 -23
105 -13 177 11 81 32 131 57 131 7 0 48 -21 92 -46 l79 -45 105 3 c155 6 264
54 375 165 129 129 180 300 154 518 -19 159 -76 285 -180 400 -170 185 -368
265 -657 265 -143 0 -157 -2 -297 -47 -78 -25 -221 -101 -304 -163 -221 -164
-385 -451 -421 -739 -5 -41 -14 -79 -20 -85 -13 -13 -13 -299 0 -312 6 -6 14
-42 19 -81 5 -39 13 -86 19 -104 56 -187 82 -257 127 -348 58 -115 90 -160
207 -297 155 -181 386 -331 638 -413 50 -17 87 -26 265 -62 77 -16 464 -16
565 -1 128 20 268 55 350 87 19 8 67 26 105 41 106 40 239 119 368 216 76 58
247 227 322 318 196 237 456 716 629 1160 21 52 51 129 68 170 41 102 53 134
79 215 38 119 -38 109 733 102 448 -4 672 -9 679 -16 6 -6 14 -32 18 -58 3
-27 12 -84 18 -128 6 -44 16 -100 21 -125 6 -25 15 -76 20 -115 10 -75 29
-196 55 -340 79 -446 85 -514 61 -600 -37 -124 -92 -177 -216 -205 -128 -29
-133 -38 -128 -247 l3 -155 33 -29 32 -29 885 0 885 0 0 85 0 85 -824 0 c-699
0 -825 2 -835 14 -7 8 -11 37 -9 67 l3 53 57 17 c119 35 192 98 252 216 48 98
61 201 42 355 -8 64 -19 134 -25 155 -5 21 -16 94 -25 163 -9 69 -21 145 -26
170 -5 25 -12 68 -15 95 -4 28 -13 79 -20 115 -19 92 -41 226 -61 360 -9 63
-24 147 -33 185 l-16 70 -825 0 -824 0 -28 -75 c-37 -98 -80 -209 -134 -346
-24 -61 -44 -114 -44 -118 0 -3 -11 -30 -26 -59 -14 -28 -63 -142 -110 -251
-83 -193 -120 -267 -190 -389 -19 -32 -34 -60 -34 -62 0 -9 -106 -184 -149
-245 -211 -302 -449 -508 -723 -626 -257 -111 -590 -162 -850 -129 -345 42
-610 160 -821 364 -89 86 -141 154 -210 273 -96 166 -134 274 -167 478 -35
213 9 522 101 702 46 89 133 209 193 266 68 63 191 143 260 168 132 48 175 55
325 51 157 -4 202 -14 312 -65 156 -75 269 -208 325 -386 20 -63 22 -172 4
-206 -5 -10 -10 -28 -10 -39 0 -38 -72 -161 -117 -200 -74 -66 -103 -76 -238
-79 l-120 -4 -60 41 c-83 57 -114 55 -199 -13 -50 -40 -81 -96 -100 -176 -63
-267 77 -621 311 -781 59 -41 178 -94 233 -104 78 -15 329 -11 390 7 158 44
342 159 485 303 179 179 290 325 442 575 71 118 393 784 393 814 0 4 11 31 24
59 13 29 41 93 61 142 20 50 43 104 50 120 48 108 91 219 152 390 13 39 52
134 128 320 44 107 59 146 211 550 64 171 143 380 176 465 33 85 66 171 73
190 7 19 30 80 50 135 21 55 46 123 57 150 39 100 81 214 138 375 66 185 101
281 154 420 20 52 36 99 36 103 0 5 6 23 13 40 8 18 28 70 46 117 18 47 38
101 46 120 51 134 76 212 73 227 -3 15 -24 20 -143 31 -336 30 -498 39 -775
41 -403 2 -612 -16 -880 -78 -464 -106 -808 -386 -882 -718 -17 -78 -17 -88
-2 -160 19 -92 42 -140 96 -199 52 -56 109 -89 192 -110 64 -16 72 -16 152 1
59 12 88 15 96 7 16 -16 38 -150 38 -232 -1 -177 -92 -347 -244 -454 -75 -54
-128 -80 -231 -118 -73 -27 -92 -29 -215 -30 -142 -1 -189 8 -316 59 -106 42
-186 95 -270 178 -129 128 -196 251 -246 449 -18 70 -20 101 -15 255 7 226 25
297 127 506 110 224 377 489 631 627 213 116 322 164 504 220 292 91 583 133
995 144 270 6 1102 -10 1330 -27 229 -17 802 -14 1035 6 240 20 281 18 277
-10 -1 -11 -9 -60 -17 -110 -38 -235 -32 -648 14 -911 15 -90 40 -242 51 -311
23 -144 31 -190 40 -228 5 -22 23 -114 40 -205 17 -91 37 -192 45 -225 9 -33
19 -80 24 -105 5 -25 18 -94 30 -155 12 -60 28 -148 37 -195 8 -47 21 -114 29
-150 15 -73 36 -188 60 -330 9 -52 22 -124 30 -160 13 -64 29 -155 41 -235 3
-22 12 -69 19 -105 7 -36 21 -103 30 -150 9 -47 22 -116 30 -155 8 -38 21
-110 30 -160 9 -49 22 -119 30 -155 12 -61 22 -111 61 -312 9 -46 22 -111 30
-145 8 -34 14 -72 14 -85 0 -13 7 -52 15 -88 19 -84 39 -189 60 -315 44 -261
106 -498 158 -600 28 -56 76 -125 87 -125 13 0 13 403 1 416 -5 5 -21 72 -36
149 -15 77 -40 205 -55 285 -36 184 -84 439 -105 555 -8 50 -20 106 -24 125
-9 33 -37 182 -63 330 -6 36 -20 106 -30 155 -21 100 -55 283 -68 360 -4 28
-19 104 -33 170 -14 66 -32 163 -41 215 -9 52 -23 124 -31 160 -7 36 -21 106
-30 155 -38 214 -57 314 -70 375 -7 36 -19 94 -25 130 -13 71 -33 176 -54 285
-25 123 -45 228 -61 318 -8 48 -22 124 -30 170 -58 332 -73 435 -90 633 -26
294 -20 454 27 699 12 61 23 122 26 138 3 18 -4 39 -19 62 l-24 36 -135 -4
c-79 -2 -154 -9 -180 -18 -63 -20 -1371 -19 -1470 1 -79 16 -1365 26 -1391 10z"/>
<path d="M4942 5957 c-12 -24 -22 -49 -22 -55 0 -6 -6 -26 -14 -44 -8 -18 -29
-73 -47 -123 -17 -49 -46 -128 -64 -175 -18 -47 -40 -105 -48 -130 -9 -25 -37
-103 -62 -175 -26 -71 -58 -164 -71 -205 -14 -41 -28 -82 -33 -90 -4 -8 -18
-49 -30 -90 -12 -41 -29 -88 -36 -105 -7 -16 -20 -48 -28 -70 -8 -22 -22 -58
-30 -80 -9 -22 -24 -65 -33 -95 -17 -52 -67 -191 -85 -235 -14 -32 -40 -107
-49 -140 -18 -66 -100 -303 -120 -350 -12 -27 -26 -61 -30 -75 -5 -14 -18 -50
-30 -80 -11 -30 -32 -86 -45 -125 -12 -38 -33 -95 -45 -125 -12 -30 -35 -91
-51 -135 -17 -44 -37 -98 -45 -120 -8 -22 -24 -69 -35 -105 -12 -36 -28 -81
-36 -101 -8 -20 -13 -47 -11 -60 l3 -24 360 -9 c386 -9 1000 5 1050 24 26 10
27 13 21 53 -6 40 -22 150 -46 302 -6 39 -17 106 -25 150 -15 82 -31 176 -60
345 -9 52 -21 113 -26 135 -5 22 -14 72 -19 110 -9 70 -28 181 -54 325 -8 41
-19 109 -26 150 -6 41 -18 110 -26 153 -8 42 -14 90 -14 106 0 16 -6 59 -14
97 -17 83 -39 218 -62 376 -25 179 -16 469 18 603 56 214 62 276 20 192z
m-161 -1114 c4 -37 13 -111 19 -163 6 -52 13 -102 16 -110 3 -8 12 -58 20
-110 46 -292 60 -376 117 -710 9 -47 22 -128 31 -180 8 -52 22 -135 30 -185 9
-49 23 -133 33 -185 9 -52 17 -117 17 -145 l1 -50 -485 -2 c-287 -2 -491 1
-500 7 -12 8 -12 14 4 47 10 21 29 72 43 113 13 41 30 89 38 107 8 17 15 34
15 38 0 3 21 63 46 133 26 70 67 183 91 252 24 69 53 150 64 180 11 30 25 71
31 90 5 19 13 40 18 45 4 6 24 60 44 120 52 156 98 278 108 289 4 6 8 19 8 29
0 10 6 33 14 50 8 18 24 61 35 97 11 36 34 103 50 150 17 47 31 90 31 96 0 6
7 28 16 49 21 50 34 35 45 -52z"/>
</g>
</g>
</svg>
