<svg xmlns="http://www.w3.org/2000/svg" viewBox="0 0 4029.338987 814.665220" fill="#ffffff" role="img" aria-label="ArcKanBan"><title>ArcKanBan</title>
<g transform="translate(-70.541285,893.918637) scale(0.100000,-0.100000)"
fill="#ffffff" stroke="none">
<path d="M29135 8928 c-22 -5 -94 -13 -161 -18 -66 -5 -133 -14 -148 -20 -15
-5 -43 -10 -63 -10 -39 0 -153 -23 -224 -45 -26 -8 -56 -15 -68 -15 -11 0 -35
-6 -53 -14 -18 -7 -62 -23 -98 -34 -106 -34 -149 -51 -239 -93 -47 -23 -102
-48 -121 -57 -163 -75 -436 -287 -546 -423 -200 -247 -288 -467 -301 -751 -14
-311 78 -546 292 -746 175 -163 448 -244 679 -201 304 57 518 246 598 526 18
63 22 104 23 213 l0 135 -42 82 c-43 82 -63 103 -142 143 -39 20 -54 22 -120
16 -156 -13 -144 -15 -165 28 -19 40 -19 40 5 110 28 83 79 163 144 229 70 70
202 157 239 157 8 0 36 -30 63 -67 159 -223 204 -325 233 -525 16 -106 8 -359
-14 -433 -8 -27 -17 -75 -21 -105 -3 -30 -10 -73 -15 -95 -5 -22 -19 -89 -31
-150 -12 -60 -37 -168 -56 -240 -20 -71 -39 -153 -44 -182 -5 -29 -15 -65 -22
-80 -9 -22 -13 -384 -17 -1633 l-6 -1605 -30 -88 c-51 -142 -108 -208 -213
-245 -31 -11 -78 -23 -104 -26 -63 -8 -103 -32 -123 -74 -12 -27 -15 -62 -12
-181 3 -162 9 -179 69 -205 37 -16 2622 -4 2768 13 261 30 490 101 776 241
107 53 167 91 255 160 221 175 360 329 460 510 131 236 172 342 237 620 26
111 26 558 0 680 -25 116 -47 199 -63 237 -8 17 -14 36 -14 43 0 19 -79 179
-133 270 -65 109 -100 155 -199 263 -170 186 -375 325 -635 432 -51 21 -93 41
-93 46 0 10 11 18 155 112 205 134 415 366 518 572 46 92 110 286 133 405 26
129 25 490 -2 608 -21 96 -70 249 -101 321 -28 63 -118 216 -165 282 -91 127
-255 282 -426 403 -141 99 -609 299 -790 337 -24 5 -49 12 -55 16 -7 4 -34 11
-62 15 -84 12 -167 29 -219 44 -26 8 -65 14 -86 14 -22 0 -51 5 -67 11 -15 6
-68 14 -118 19 -49 5 -112 14 -140 19 -27 5 -81 10 -120 10 -38 1 -110 8 -160
16 -103 17 -730 20 -800 3z m730 -183 c83 -8 202 -19 265 -26 227 -22 428 -51
476 -69 14 -6 41 -10 60 -10 19 0 51 -7 71 -15 19 -8 45 -15 56 -15 11 0 43
-6 71 -14 28 -8 80 -22 116 -32 470 -121 879 -379 1077 -677 66 -100 148 -263
176 -352 82 -259 80 -605 -4 -865 -77 -238 -206 -435 -386 -591 -145 -125
-286 -217 -418 -272 -33 -13 -87 -36 -120 -50 -33 -14 -103 -35 -154 -46 -52
-12 -100 -26 -105 -31 -19 -19 16 -30 97 -30 156 0 415 -75 630 -182 247 -123
464 -306 598 -506 78 -117 119 -200 155 -311 82 -255 88 -294 88 -561 1 -185
-3 -251 -16 -310 -9 -41 -19 -86 -21 -100 -14 -75 -67 -231 -113 -329 -107
-228 -341 -499 -544 -630 -102 -66 -386 -204 -480 -233 -189 -59 -363 -92
-570 -108 -82 -6 -598 -10 -1302 -10 -1144 0 -1168 0 -1178 19 -15 30 -12 97
6 115 8 9 26 16 38 16 26 0 118 30 164 54 40 21 130 110 172 170 38 56 63 127
86 244 16 79 18 228 24 1672 5 1215 9 1596 19 1630 6 25 23 81 36 125 117 391
173 901 130 1196 -32 221 -116 416 -233 541 -21 22 -32 43 -29 52 9 22 117 52
280 78 122 20 179 23 402 23 328 -1 446 -16 835 -110 142 -34 315 -112 425
-190 98 -69 224 -209 268 -296 20 -41 37 -80 37 -86 0 -6 7 -24 15 -39 8 -16
15 -37 15 -48 0 -10 7 -39 15 -65 30 -97 40 -197 39 -411 0 -232 -10 -309 -60
-470 -81 -261 -148 -360 -324 -477 -99 -66 -203 -107 -319 -127 -94 -16 -265
-22 -295 -10 -14 6 -16 99 -16 960 0 1085 10 976 -90 1009 -49 16 -54 16 -65
2 -9 -12 -11 -282 -11 -1058 l1 -1042 28 -21 c25 -18 45 -21 192 -24 316 -8
554 61 738 213 66 55 178 194 214 264 10 20 23 43 29 51 30 42 104 254 104
299 0 12 5 32 11 44 7 11 16 50 20 86 5 36 13 89 18 116 12 63 13 318 1 410
-20 164 -30 224 -38 246 -5 13 -15 42 -22 64 -18 59 -44 117 -103 226 -97 182
-241 314 -477 437 -156 82 -372 148 -544 167 -33 4 -71 11 -85 17 -14 5 -66
14 -116 19 -49 5 -126 13 -170 18 -44 6 -188 10 -320 10 -194 1 -261 -3 -350
-19 -375 -66 -617 -172 -806 -357 -95 -92 -140 -157 -185 -266 -28 -70 -35
-100 -37 -169 -2 -72 1 -90 25 -140 21 -44 38 -65 74 -88 62 -39 114 -40 189
-3 l54 27 48 -20 c44 -18 49 -24 65 -74 10 -35 17 -90 17 -149 2 -224 -107
-405 -301 -499 -113 -55 -158 -67 -258 -67 -106 0 -183 18 -285 66 -174 82
-301 228 -363 419 -56 173 -54 317 6 530 106 372 428 683 906 877 61 24 128
48 150 54 40 10 110 28 191 48 132 33 374 71 455 72 30 0 87 7 125 14 100 19
521 19 710 0z"/>
<path d="M30125 5450 c-97 -5 -146 -24 -166 -63 -19 -34 -19 -2384 -1 -2485
13 -71 39 -140 64 -173 36 -46 157 -69 361 -69 232 0 413 49 581 157 82 53
238 206 288 283 49 76 121 214 143 275 9 28 24 64 31 82 8 17 14 37 14 44 0 7
6 31 14 54 26 75 46 220 62 455 8 109 -10 381 -32 490 -30 148 -56 223 -120
353 -88 178 -173 282 -328 398 -121 92 -206 130 -371 167 -197 45 -255 48
-540 32z m465 -192 c219 -46 390 -153 519 -326 46 -63 121 -199 121 -220 0 -5
7 -23 15 -38 8 -16 15 -38 15 -49 1 -11 7 -31 15 -45 8 -14 14 -39 15 -57 0
-17 5 -44 11 -60 20 -50 34 -195 33 -353 0 -254 -15 -355 -91 -617 -44 -156
-186 -383 -294 -473 -111 -93 -238 -151 -367 -170 -107 -16 -403 -10 -425 9
-9 7 -21 30 -27 50 -11 42 -14 2353 -3 2365 13 13 384 0 463 -16z"/>
<path d="M14914 8604 l-34 -35 0 -175 c0 -101 4 -183 10 -195 15 -27 63 -49
107 -49 113 0 250 -65 305 -145 31 -46 64 -144 78 -230 14 -84 13 -4531 0
-4645 -18 -150 -26 -184 -57 -251 -53 -115 -144 -182 -283 -208 -94 -18 -117
-29 -140 -66 -18 -29 -20 -50 -20 -185 l0 -152 34 -34 34 -34 1167 0 1167 0
34 34 34 34 0 155 c0 86 -4 166 -9 179 -18 46 -49 68 -95 68 -63 0 -168 35
-218 73 -88 68 -128 163 -147 352 -7 70 -11 391 -11 876 l0 766 23 31 c76 104
133 172 144 172 17 0 63 -72 143 -225 34 -66 92 -169 128 -230 67 -112 285
-488 352 -605 125 -218 194 -339 257 -445 82 -138 257 -437 316 -540 22 -38
66 -108 97 -155 31 -47 74 -114 95 -150 113 -190 303 -461 415 -590 30 -36 73
-87 95 -115 125 -157 425 -434 615 -567 151 -106 442 -266 590 -326 123 -49
150 -58 255 -87 272 -74 324 -82 638 -106 335 -25 677 23 1047 148 242 82 387
157 670 350 36 24 115 86 175 136 83 70 111 99 113 120 2 17 -24 87 -73 196
-72 160 -97 201 -122 201 -6 0 -55 -25 -109 -56 -196 -111 -364 -178 -564
-226 -158 -37 -473 -59 -590 -40 -36 6 -96 15 -135 21 -93 13 -305 82 -435
140 -307 138 -631 404 -867 713 -59 78 -126 164 -147 192 -72 92 -366 569
-504 816 -84 150 -219 386 -247 430 -12 19 -40 69 -62 110 -22 41 -62 111 -88
155 -52 88 -70 120 -170 305 -105 193 -117 214 -128 228 -6 7 -52 86 -102 175
-50 89 -116 205 -147 257 -30 52 -106 185 -168 295 -62 110 -154 270 -205 355
-137 230 -167 288 -159 302 7 12 142 167 155 178 6 5 336 401 401 480 40 50
255 307 321 385 23 27 74 88 112 136 147 182 337 398 426 486 163 159 339 272
504 323 39 11 84 25 101 31 17 5 53 9 80 9 27 0 65 8 84 18 58 29 62 45 56
247 -6 178 -6 180 -32 203 l-25 22 -956 -2 -955 -3 -29 -33 -29 -32 0 -173 c0
-189 4 -203 60 -232 16 -8 49 -15 73 -15 60 0 133 -27 157 -57 27 -35 27 -115
-1 -168 -29 -55 -139 -200 -251 -332 -107 -127 -229 -276 -307 -378 -30 -38
-77 -97 -106 -130 -60 -69 -233 -283 -319 -393 -32 -42 -115 -144 -185 -227
-69 -83 -173 -212 -231 -286 -58 -73 -122 -154 -143 -179 -21 -25 -49 -57 -62
-72 -13 -16 -28 -28 -34 -28 -9 0 -11 255 -9 963 4 940 4 963 24 1022 39 113
92 187 158 222 42 22 155 53 193 53 19 0 43 10 60 24 l28 24 3 163 c4 203 1
222 -42 248 -33 21 -39 21 -1191 21 l-1158 0 -33 -36z m2251 -218 l0 -70 -73
-18 c-96 -23 -158 -58 -229 -128 -64 -62 -112 -149 -137 -245 -28 -105 -33
-376 -31 -1439 3 -767 6 -1041 15 -1050 8 -8 17 -4 33 15 130 155 263 316 311
378 53 68 169 208 311 376 28 33 97 121 155 195 57 74 147 187 199 250 224
271 289 351 344 421 31 41 81 101 110 134 122 142 403 497 464 588 79 119 105
262 64 352 -36 81 -171 165 -263 165 -16 0 -31 7 -36 18 -14 26 -7 113 9 123
8 5 384 9 841 9 651 0 829 -3 835 -12 10 -16 13 -127 3 -133 -3 -2 -38 -9 -76
-15 -100 -16 -258 -71 -353 -124 -239 -132 -407 -302 -914 -924 -21 -26 -73
-90 -117 -142 -43 -52 -111 -136 -152 -186 -40 -51 -149 -182 -243 -292 -231
-272 -387 -459 -405 -488 -14 -23 -13 -29 20 -92 52 -97 250 -455 341 -614 44
-75 79 -139 79 -143 0 -3 29 -52 64 -108 35 -56 76 -123 90 -149 14 -27 37
-67 49 -90 13 -24 43 -79 67 -123 24 -44 51 -91 60 -105 9 -14 34 -56 55 -95
75 -138 100 -182 185 -325 48 -80 105 -179 127 -220 22 -41 60 -111 85 -155
148 -257 276 -479 314 -545 23 -41 74 -129 113 -195 39 -66 75 -129 81 -140 6
-11 18 -32 28 -46 9 -15 42 -67 72 -115 146 -238 341 -501 477 -645 304 -324
414 -408 753 -581 185 -94 281 -128 505 -177 131 -29 408 -39 538 -21 240 35
389 68 497 111 65 26 264 126 319 161 15 9 23 9 37 -3 24 -19 66 -117 59 -138
-9 -30 -240 -203 -355 -266 -334 -185 -611 -278 -960 -325 -262 -34 -322 -35
-600 -10 -303 27 -509 81 -825 218 -208 90 -311 152 -535 323 -330 253 -581
532 -907 1011 -101 147 -333 519 -333 533 0 2 -49 86 -108 187 -60 101 -133
226 -162 278 -30 52 -139 241 -243 420 -105 179 -241 415 -303 526 -61 110
-123 218 -136 240 -14 21 -69 118 -123 214 -112 201 -170 290 -189 290 -8 0
-20 -8 -27 -19 -8 -10 -86 -108 -174 -217 l-160 -199 -5 -780 c-5 -771 1
-1009 29 -1090 6 -16 17 -54 26 -84 45 -151 183 -274 360 -321 l60 -15 3 -57
c2 -46 0 -58 -15 -66 -11 -6 -436 -10 -1049 -11 -897 -2 -1032 0 -1043 13 -7
8 -11 36 -9 67 3 49 5 53 33 61 72 21 133 42 169 60 74 37 185 158 228 248 33
70 47 139 63 325 15 172 16 399 12 2390 -3 1684 -7 2216 -16 2270 -52 292
-168 432 -411 493 l-75 19 -3 58 c-2 32 -1 64 2 71 5 12 175 14 1053 12 l1048
-3 0 -69z"/>
<path d="M3460 8585 c-91 -13 -203 -31 -250 -40 -47 -9 -106 -21 -133 -25 -26
-5 -62 -13 -80 -19 -17 -5 -59 -17 -92 -27 -132 -39 -230 -78 -408 -163 -377
-179 -719 -494 -874 -806 -157 -314 -185 -710 -73 -1012 24 -64 88 -195 122
-248 29 -46 171 -188 238 -237 198 -149 494 -218 732 -173 129 24 258 67 325
106 30 19 92 67 135 108 192 180 258 321 258 556 0 138 -17 230 -62 322 -41
85 -59 92 -187 68 -120 -22 -173 -16 -238 28 -66 45 -87 85 -87 167 2 123 73
259 198 378 88 84 178 139 323 198 162 65 294 94 598 131 248 29 1138 20 1165
-12 7 -9 -1 -42 -25 -111 -20 -54 -40 -108 -45 -119 -5 -11 -21 -54 -34 -95
-14 -41 -41 -120 -61 -175 -20 -55 -43 -120 -51 -145 -9 -25 -28 -72 -42 -105
-14 -33 -31 -78 -38 -100 -7 -22 -21 -62 -32 -90 -44 -112 -166 -435 -192
-505 -15 -42 -40 -107 -54 -145 -15 -39 -33 -86 -41 -105 -7 -19 -40 -105 -74
-190 -33 -85 -71 -184 -84 -220 -13 -36 -56 -148 -95 -250 -39 -102 -89 -234
-112 -295 -23 -60 -48 -126 -55 -145 -76 -200 -320 -804 -349 -865 -13 -27
-63 -140 -111 -250 -90 -208 -169 -373 -230 -485 -20 -36 -52 -94 -72 -130
-59 -109 -224 -348 -299 -434 -211 -242 -477 -396 -684 -396 -127 0 -301 83
-412 197 -63 64 -120 177 -148 295 -21 87 -23 105 -13 177 11 81 32 131 57
131 7 0 48 -21 92 -46 l79 -45 105 3 c155 6 264 54 375 165 97 98 140 191 156
342 17 162 -16 325 -92 453 -111 189 -301 323 -529 372 -101 22 -341 22 -413
1 -122 -37 -157 -50 -241 -93 -161 -82 -273 -178 -384 -327 -95 -129 -186
-362 -209 -540 -10 -79 -10 -354 0 -430 27 -195 144 -498 244 -631 187 -248
370 -396 626 -505 378 -161 926 -171 1307 -24 19 8 67 26 105 41 106 40 239
119 368 216 76 58 247 227 322 318 196 237 456 716 629 1160 21 52 51 129 68
170 41 102 53 134 79 215 38 119 -38 109 733 102 448 -4 672 -9 679 -16 6 -6
14 -32 18 -58 3 -27 12 -84 18 -128 6 -44 16 -100 21 -125 6 -25 15 -76 20
-115 10 -75 29 -196 55 -340 79 -446 85 -514 61 -600 -37 -124 -92 -177 -216
-205 -128 -29 -133 -38 -128 -247 l3 -155 33 -29 32 -29 1081 0 1080 0 39 38
38 37 7 150 c8 186 5 191 -113 229 -120 38 -145 51 -206 107 -93 85 -146 216
-201 494 -15 77 -40 205 -55 285 -36 185 -84 439 -105 555 -8 50 -20 106 -24
125 -9 33 -37 182 -63 330 -6 36 -20 106 -30 155 -21 100 -55 283 -68 360 -4
28 -19 104 -33 170 -14 66 -32 163 -41 215 -9 52 -23 124 -31 160 -7 36 -21
106 -30 155 -38 214 -57 314 -70 375 -7 36 -19 94 -25 130 -13 71 -33 176 -54
285 -25 123 -45 228 -61 318 -8 48 -22 124 -30 170 -58 332 -73 435 -90 633
-26 294 -19 455 27 699 33 172 33 167 3 203 -26 31 -29 32 -111 32 -46 0 -132
-8 -191 -17 -95 -16 -184 -18 -763 -17 -456 0 -685 4 -755 13 -66 8 -305 14
-695 16 -584 4 -598 4 -760 -20z m1208 -155 c235 -6 497 -15 582 -21 240 -17
800 -14 1035 6 240 20 281 18 277 -10 -1 -11 -9 -60 -17 -110 -38 -235 -32
-648 14 -911 15 -90 40 -242 51 -311 23 -144 31 -190 40 -228 5 -22 23 -114
40 -205 17 -91 37 -192 45 -225 9 -33 19 -80 24 -105 5 -25 18 -94 30 -155 12
-60 28 -148 37 -195 8 -47 21 -114 29 -150 15 -73 36 -188 60 -330 9 -52 22
-124 30 -160 13 -64 29 -155 41 -235 3 -22 12 -69 19 -105 7 -36 21 -103 30
-150 9 -47 22 -116 30 -155 8 -38 21 -110 30 -160 9 -49 22 -119 30 -155 7
-36 20 -101 29 -145 39 -204 49 -254 62 -312 8 -34 14 -72 14 -85 0 -13 7 -52
15 -88 19 -84 39 -189 60 -315 45 -267 106 -498 160 -605 72 -143 200 -254
335 -290 61 -16 70 -26 70 -74 0 -77 90 -71 -985 -74 -756 -3 -969 -1 -981 9
-11 9 -14 28 -12 68 l3 55 57 17 c119 35 192 98 252 216 48 98 61 201 42 355
-8 64 -19 134 -25 155 -5 21 -16 94 -25 163 -9 69 -21 145 -26 170 -5 25 -12
68 -15 95 -4 28 -13 79 -20 115 -19 92 -41 226 -61 360 -9 63 -24 147 -33 185
l-16 70 -825 0 -824 0 -28 -75 c-37 -98 -80 -209 -134 -346 -24 -61 -44 -114
-44 -118 0 -3 -11 -30 -26 -59 -14 -28 -63 -142 -110 -251 -83 -193 -120 -267
-190 -389 -19 -32 -34 -60 -34 -62 0 -9 -106 -184 -149 -245 -211 -302 -449
-508 -723 -626 -257 -111 -590 -162 -850 -129 -345 42 -610 160 -821 364 -89
86 -141 154 -210 273 -96 166 -134 274 -167 478 -35 213 9 522 101 702 46 89
133 209 193 266 68 63 191 143 260 168 132 48 175 55 325 51 157 -4 202 -14
312 -65 156 -75 269 -208 325 -386 20 -63 22 -172 4 -206 -5 -10 -10 -28 -10
-39 0 -38 -72 -161 -117 -200 -74 -66 -103 -76 -238 -79 l-120 -4 -60 41 c-83
57 -114 55 -199 -13 -50 -40 -81 -96 -100 -176 -63 -267 77 -621 311 -781 59
-41 178 -94 233 -104 78 -15 329 -11 390 7 158 44 342 159 485 303 179 179
290 325 442 575 71 118 393 784 393 814 0 4 11 31 24 59 13 29 41 93 61 142
20 50 43 104 50 120 48 108 91 219 152 390 13 39 52 134 128 320 44 107 59
146 211 550 64 171 143 380 176 465 33 85 66 171 73 190 7 19 30 80 50 135 21
55 46 123 57 150 39 100 81 214 138 375 66 185 101 281 154 420 20 52 36 99
36 103 0 5 6 23 13 40 8 18 28 70 46 117 18 47 38 101 46 120 51 134 76 212
73 227 -3 15 -24 20 -143 31 -336 30 -498 39 -775 41 -403 2 -612 -16 -880
-78 -464 -106 -808 -386 -882 -718 -17 -78 -17 -88 -2 -160 19 -92 42 -140 96
-199 52 -56 109 -89 192 -110 64 -16 72 -16 152 1 59 12 88 15 96 7 16 -16 38
-150 38 -232 -1 -177 -92 -347 -244 -454 -75 -54 -128 -80 -231 -118 -73 -27
-92 -29 -215 -30 -142 -1 -189 8 -316 59 -106 42 -186 95 -270 178 -129 128
-196 251 -246 449 -18 70 -20 101 -15 255 7 226 25 297 127 506 110 224 377
489 631 627 277 151 450 217 734 281 352 80 682 96 1513 77z"/>
<path d="M5632 7877 c-12 -24 -22 -49 -22 -55 0 -6 -6 -26 -14 -44 -8 -18 -29
-73 -47 -123 -17 -49 -46 -128 -64 -175 -18 -47 -40 -105 -48 -130 -9 -25 -37
-103 -62 -175 -26 -71 -58 -164 -71 -205 -14 -41 -28 -82 -33 -90 -4 -8 -18
-49 -30 -90 -12 -41 -29 -88 -36 -105 -7 -16 -20 -48 -28 -70 -8 -22 -22 -58
-30 -80 -9 -22 -24 -65 -33 -95 -17 -52 -67 -191 -85 -235 -14 -32 -40 -107
-49 -140 -18 -66 -100 -303 -120 -350 -12 -27 -26 -61 -30 -75 -5 -14 -18 -50
-30 -80 -11 -30 -32 -86 -45 -125 -12 -38 -33 -95 -45 -125 -12 -30 -35 -91
-51 -135 -17 -44 -37 -98 -45 -120 -8 -22 -24 -69 -35 -105 -12 -36 -28 -81
-36 -101 -8 -20 -13 -47 -11 -60 l3 -24 360 -9 c386 -9 1000 5 1050 24 26 10
27 13 21 53 -6 40 -22 150 -46 302 -6 39 -17 106 -25 150 -15 82 -31 176 -60
345 -9 52 -21 113 -26 135 -5 22 -14 72 -19 110 -9 70 -28 181 -54 325 -8 41
-19 109 -26 150 -6 41 -18 110 -26 153 -8 42 -14 90 -14 106 0 16 -6 59 -14
97 -17 83 -39 218 -62 376 -25 179 -16 469 18 603 56 214 62 276 20 192z
m-161 -1114 c4 -37 13 -111 19 -163 6 -52 13 -102 16 -110 3 -8 12 -58 20
-110 46 -292 60 -376 117 -710 9 -47 22 -128 31 -180 8 -52 22 -135 30 -185 9
-49 23 -133 33 -185 9 -52 17 -117 17 -145 l1 -50 -485 -2 c-287 -2 -491 1
-500 7 -12 8 -12 14 4 47 10 21 29 72 43 113 13 41 30 89 38 107 8 17 15 34
15 38 0 3 21 63 46 133 26 70 67 183 91 252 24 69 53 150 64 180 11 30 25 71
31 90 5 19 13 40 18 45 4 6 24 60 44 120 52 156 98 278 108 289 4 6 8 19 8 29
0 10 6 33 14 50 8 18 24 61 35 97 11 36 34 103 50 150 17 47 31 90 31 96 0 6
7 28 16 49 21 50 34 35 45 -52z"/>
<path d="M10390 6610 c-150 -20 -322 -99 -498 -227 -20 -14 -25 -14 -33 -2 -5
8 -7 23 -4 35 6 29 -35 106 -65 121 -16 8 -69 13 -142 13 -112 0 -122 -2 -245
-44 -339 -116 -515 -173 -678 -221 -79 -23 -245 -74 -300 -92 -107 -34 -118
-58 -113 -240 3 -112 5 -123 27 -147 13 -14 48 -32 77 -41 94 -27 151 -100
170 -215 14 -85 11 -2582 -3 -2655 -15 -78 -43 -143 -79 -179 -28 -28 -116
-76 -140 -76 -7 0 -26 -16 -44 -36 l-31 -36 3 -150 3 -150 37 -34 38 -34 863
0 864 0 34 23 c19 13 39 38 46 57 15 44 17 271 2 302 -14 32 -66 64 -114 72
-87 13 -160 95 -191 216 -16 59 -17 173 -17 1260 l0 1195 25 80 c59 188 95
257 197 374 103 119 211 160 211 80 0 -5 -33 -44 -72 -87 -114 -122 -157 -221
-157 -362 0 -68 18 -171 40 -230 39 -104 147 -220 252 -273 83 -43 221 -77
307 -76 107 0 213 24 310 71 282 134 437 407 434 763 -3 321 -120 596 -324
762 -189 153 -432 218 -690 183z m345 -200 c81 -23 178 -73 233 -121 177 -156
263 -359 264 -629 2 -264 -82 -446 -261 -564 -102 -68 -178 -88 -315 -84 -103
3 -116 6 -188 40 -99 47 -167 110 -204 191 -25 54 -29 74 -29 152 0 153 46
248 154 316 62 40 81 72 81 141 0 101 -40 175 -115 209 -206 95 -530 -212
-630 -598 -14 -52 -27 -98 -30 -103 -2 -4 -5 -556 -6 -1226 -1 -1208 -1 -1220
20 -1299 26 -98 59 -167 107 -223 36 -42 125 -102 153 -102 28 0 51 -32 51
-70 0 -76 65 -70 -790 -68 l-765 3 -3 62 -3 62 43 19 c73 33 123 77 170 149
67 102 85 169 98 368 15 223 8 2484 -7 2566 -14 74 -55 155 -108 215 -37 42
-69 63 -155 104 -19 9 -26 96 -9 116 6 8 21 14 32 14 11 0 50 9 86 20 36 11
143 42 236 69 94 28 296 93 450 145 280 95 369 115 380 84 5 -13 13 -238 14
-390 1 -81 13 -100 32 -51 27 72 153 220 269 315 121 100 268 165 435 192 64
10 236 -3 310 -24z"/>
<path d="M13055 6604 c-56 -5 -190 -32 -255 -51 -232 -66 -422 -168 -607 -327
-136 -117 -197 -183 -301 -329 -125 -175 -165 -248 -297 -552 -13 -30 -68
-200 -85 -265 -114 -426 -139 -845 -76 -1260 45 -294 86 -434 208 -705 208
-463 546 -780 981 -920 171 -54 269 -67 475 -62 259 7 414 43 625 148 108 53
284 175 365 253 49 46 162 178 235 273 94 123 251 460 263 566 8 70 -1 86 -97
164 -199 162 -243 193 -276 193 -28 0 -85 -50 -125 -109 -119 -176 -261 -283
-452 -340 -98 -30 -277 -30 -361 0 -95 33 -181 86 -264 163 -92 86 -223 340
-270 526 -43 170 -71 367 -83 580 -23 439 40 857 171 1125 92 190 160 268 277
322 117 53 266 33 347 -47 50 -50 48 -75 -9 -130 -64 -64 -117 -135 -156 -210
-33 -65 -33 -65 -33 -210 0 -164 9 -198 78 -307 84 -135 256 -243 421 -265
137 -18 256 0 371 57 153 76 253 170 331 313 76 139 115 372 83 497 -5 22 -13
60 -18 85 -17 84 -71 208 -132 300 -50 75 -211 229 -303 289 -147 95 -340 176
-521 217 -68 15 -412 27 -510 18z m385 -182 c25 -6 77 -16 115 -22 163 -28
278 -74 410 -163 193 -130 268 -220 359 -429 9 -20 16 -47 16 -60 0 -12 7 -48
15 -78 17 -64 19 -139 4 -195 -6 -22 -14 -58 -18 -80 -4 -22 -20 -66 -35 -97
-158 -331 -544 -410 -779 -159 -57 61 -81 109 -96 192 -14 76 -3 166 30 233
11 23 58 77 103 121 76 73 84 84 90 128 20 132 -57 263 -191 324 -206 95 -446
49 -611 -117 -105 -106 -215 -320 -288 -558 -27 -90 -73 -338 -86 -462 -36
-352 9 -817 110 -1125 90 -275 159 -401 299 -551 180 -193 475 -285 717 -224
109 27 202 64 304 121 59 34 107 74 205 173 116 117 129 127 146 115 10 -8 46
-34 80 -58 48 -35 61 -51 61 -71 0 -96 -180 -433 -316 -594 -131 -155 -288
-280 -441 -351 -310 -146 -654 -175 -950 -79 -116 37 -289 125 -379 192 -113
85 -290 271 -364 383 -141 215 -238 453 -314 779 -62 265 -72 738 -22 1040 61
372 162 651 330 920 85 136 105 162 219 288 238 265 545 423 917 472 79 11
298 5 360 -8z"/>
<path d="M21840 6601 c-272 -25 -477 -81 -670 -183 -155 -81 -220 -129 -342
-252 -177 -178 -253 -336 -289 -599 -10 -67 -10 -99 -1 -138 7 -28 12 -67 12
-87 0 -44 22 -114 64 -202 46 -97 157 -203 266 -257 122 -59 196 -75 322 -70
116 4 160 14 255 57 253 115 392 345 353 585 -14 86 -47 147 -124 232 l-61 67
0 67 c0 60 3 71 31 106 17 21 55 52 85 68 47 26 64 30 129 30 133 -1 213 -60
260 -192 23 -66 24 -78 28 -446 2 -208 1 -388 -2 -401 -5 -19 -20 -28 -78 -46
-40 -13 -104 -34 -143 -47 -38 -14 -83 -28 -100 -33 -47 -13 -102 -35 -204
-79 -52 -23 -98 -41 -102 -41 -4 0 -37 -13 -72 -30 -36 -16 -68 -30 -72 -30
-14 0 -185 -90 -275 -144 -148 -90 -215 -141 -327 -249 -93 -90 -153 -168
-240 -312 -29 -48 -81 -165 -97 -220 -10 -33 -22 -75 -28 -93 -5 -18 -14 -59
-18 -90 -5 -31 -14 -86 -19 -122 -41 -257 23 -583 158 -810 196 -332 511 -500
936 -500 275 0 519 82 718 240 48 38 91 70 96 70 5 0 27 -24 50 -54 112 -149
322 -246 531 -246 210 0 377 48 536 153 135 89 324 283 324 333 0 26 -61 156
-107 230 -42 65 -56 70 -118 39 -29 -15 -58 -24 -64 -21 -29 18 -31 105 -31
1287 0 801 -4 1242 -11 1315 -19 193 -84 401 -167 542 -44 74 -179 233 -233
273 -101 76 -284 175 -404 219 -178 66 -518 102 -755 81z m390 -186 c212 -26
302 -50 445 -120 115 -56 220 -129 293 -204 129 -132 225 -347 252 -562 6 -54
12 -537 15 -1300 4 -1222 6 -1284 40 -1366 21 -50 63 -100 95 -113 28 -12 47
-11 112 5 24 6 29 3 47 -34 12 -22 21 -49 21 -60 0 -29 -179 -188 -280 -248
-46 -27 -153 -69 -210 -82 -61 -14 -237 -14 -302 0 -160 35 -306 149 -362 284
-54 132 -43 130 -154 24 -135 -129 -311 -240 -459 -288 -83 -28 -232 -51 -324
-51 -170 0 -380 63 -520 156 -193 128 -303 302 -375 594 -26 107 -27 397 -1
490 10 36 25 90 33 120 58 213 207 435 389 580 160 127 432 279 655 365 25 9
56 22 70 27 14 5 56 20 95 33 38 12 81 27 95 33 14 5 70 23 125 41 55 17 145
46 200 63 l100 33 0 460 c0 508 -2 531 -67 658 -78 155 -202 231 -378 231
-146 0 -250 -42 -337 -137 -64 -69 -86 -120 -91 -210 -6 -100 12 -148 85 -230
85 -96 98 -126 97 -230 -1 -76 -5 -95 -33 -151 -38 -78 -105 -141 -193 -184
-138 -66 -218 -76 -344 -43 -99 27 -141 50 -210 118 -119 118 -159 262 -131
468 22 159 63 258 160 387 68 91 114 133 231 211 134 91 280 152 488 207 152
40 418 50 628 25z"/>
<path d="M22256 4455 c-11 -8 -27 -15 -35 -15 -27 0 -211 -98 -314 -167 -185
-123 -299 -261 -380 -462 -53 -130 -61 -181 -62 -356 0 -161 11 -238 44 -324
40 -105 99 -169 204 -223 57 -29 70 -32 162 -32 129 -1 191 18 270 81 73 59
129 131 154 199 19 49 20 86 22 670 1 341 1 625 0 632 -1 16 -42 15 -65 -3z
m-108 -729 l2 -489 -23 -51 c-46 -100 -130 -156 -233 -156 -87 0 -138 29 -190
107 -74 113 -90 256 -53 482 25 155 96 288 224 417 88 88 224 185 255 181 13
-2 15 -65 18 -491z"/>
<path d="M34410 6594 c-192 -26 -326 -67 -521 -162 -178 -86 -380 -248 -466
-372 -52 -77 -123 -221 -151 -310 -24 -77 -26 -100 -27 -245 0 -189 15 -250
92 -380 105 -179 259 -277 477 -305 76 -9 216 7 296 36 184 65 322 198 371
359 18 58 21 87 17 170 -6 123 -36 196 -122 295 -64 74 -70 90 -64 164 6 69
32 105 106 144 117 63 266 34 335 -65 71 -100 70 -94 71 -547 1 -354 -1 -410
-14 -416 -8 -5 -80 -29 -160 -55 -236 -76 -387 -132 -565 -210 -16 -7 -66 -28
-110 -46 -71 -29 -151 -70 -195 -99 -8 -6 -22 -13 -30 -17 -50 -23 -260 -196
-342 -282 -107 -112 -165 -194 -227 -317 -103 -207 -140 -376 -140 -639 -1
-130 16 -286 33 -313 4 -7 14 -37 22 -68 33 -129 120 -301 196 -389 54 -63
176 -176 232 -214 200 -137 547 -209 807 -166 261 43 396 102 602 267 l27 22
63 -66 c74 -78 112 -107 192 -146 189 -92 426 -107 646 -38 56 17 159 68 219
109 104 70 280 239 310 297 17 34 17 37 0 82 -29 76 -102 215 -127 243 -30 31
-57 32 -108 0 -22 -13 -43 -25 -47 -25 -4 0 -14 13 -23 29 -13 26 -15 180 -16
1233 0 1178 -5 1402 -29 1503 -48 195 -114 347 -201 460 -190 246 -497 415
-874 479 -113 20 -408 20 -555 0z m471 -173 c30 -6 88 -15 129 -21 41 -6 93
-17 115 -24 22 -7 65 -22 95 -31 115 -37 279 -134 366 -216 116 -108 208 -250
247 -379 54 -181 50 -80 57 -1490 5 -969 10 -1316 18 -1348 19 -66 47 -116 87
-150 40 -35 71 -40 116 -16 41 21 62 11 88 -42 30 -59 23 -74 -84 -167 -177
-155 -313 -216 -495 -224 -132 -6 -218 11 -334 66 -128 62 -201 145 -252 291
-7 19 -19 36 -27 38 -9 2 -52 -35 -98 -83 -165 -171 -363 -271 -626 -316 -146
-25 -345 1 -510 67 -222 88 -413 297 -496 544 -34 101 -67 300 -67 402 1 79
33 276 64 383 37 129 142 307 249 422 79 84 225 202 322 260 41 24 331 168
365 181 142 54 218 81 385 136 254 84 328 106 343 106 6 0 21 9 32 20 19 19
20 33 20 468 0 495 -4 535 -62 652 -83 170 -250 259 -431 230 -115 -18 -183
-51 -259 -126 -73 -72 -103 -141 -103 -239 0 -93 16 -131 89 -210 79 -85 98
-124 103 -218 5 -72 2 -89 -19 -138 -48 -106 -145 -190 -274 -235 -135 -47
-273 -31 -393 45 -83 54 -172 162 -187 228 -3 15 -13 47 -21 71 -13 33 -15 68
-10 165 10 232 67 362 236 541 70 74 147 128 281 199 148 79 254 112 495 156
68 12 379 13 446 2z"/>
<path d="M34935 4457 c-11 -8 -33 -17 -50 -21 -51 -12 -216 -96 -302 -153
-110 -73 -204 -161 -276 -257 -121 -164 -164 -294 -174 -531 -15 -353 103
-569 340 -621 68 -15 88 -16 145 -5 146 27 256 111 332 251 l35 65 0 640 c0
690 2 667 -50 632z m-105 -714 c0 -295 -4 -492 -10 -515 -18 -63 -71 -130
-130 -165 -47 -29 -63 -33 -125 -33 -97 0 -148 32 -200 124 -54 97 -68 166
-62 316 13 328 157 570 427 718 30 17 65 31 78 31 l22 1 0 -477z"/>
<path d="M26090 6588 c-211 -44 -325 -91 -500 -205 -55 -36 -104 -62 -110 -58
-5 3 -10 39 -10 80 0 69 -2 75 -31 104 -33 34 -35 34 -189 32 -97 -2 -116 -6
-251 -52 -141 -47 -327 -107 -419 -134 -25 -7 -110 -33 -190 -58 -80 -25 -199
-60 -265 -76 -100 -26 -125 -36 -147 -61 -28 -30 -28 -31 -28 -176 l0 -146 34
-34 c23 -23 43 -34 64 -34 32 0 108 -52 135 -94 10 -14 24 -54 33 -88 15 -56
17 -197 21 -1308 5 -1145 4 -1253 -12 -1340 -9 -52 -24 -115 -33 -140 -20 -60
-86 -123 -151 -145 -31 -10 -62 -29 -81 -52 l-31 -35 3 -153 c3 -146 4 -155
27 -179 14 -14 38 -29 55 -34 17 -4 413 -5 879 -2 l849 5 32 36 c33 35 33 36
39 168 9 189 -6 218 -129 248 -55 14 -76 25 -109 58 -22 22 -49 63 -60 90 -19
49 -20 81 -25 1140 -3 600 -3 1171 0 1270 6 172 7 182 34 234 37 71 109 147
171 179 44 24 61 27 150 27 88 0 107 -3 150 -25 64 -33 118 -111 146 -212 20
-71 20 -106 26 -1242 5 -1224 3 -1306 -37 -1401 -25 -58 -80 -102 -151 -122
-43 -12 -68 -26 -90 -50 l-29 -34 7 -147 c4 -104 10 -154 21 -170 35 -54 1
-52 951 -52 l880 0 34 30 35 30 4 157 c4 129 2 163 -10 185 -16 27 -50 48 -79
48 -40 0 -129 38 -167 71 -46 41 -86 112 -86 153 0 15 -5 37 -12 49 -8 16 -12
349 -14 1307 -2 1244 -3 1289 -23 1395 -34 183 -69 295 -128 404 -42 79 -168
245 -226 298 -137 126 -348 224 -555 258 -97 16 -332 18 -402 3z m478 -203
c162 -44 281 -114 407 -240 119 -120 191 -269 247 -514 22 -95 22 -103 29
-1391 4 -801 10 -1318 16 -1355 20 -114 52 -189 114 -259 49 -55 106 -90 174
-107 68 -16 75 -24 75 -80 0 -38 -4 -51 -19 -59 -30 -15 -1553 -14 -1569 2
-15 15 -16 82 -2 108 5 10 23 21 39 25 104 23 215 174 241 327 16 100 20 2395
4 2523 -22 168 -64 258 -170 354 -170 155 -474 137 -667 -39 -50 -46 -137
-165 -137 -188 0 -5 -9 -30 -20 -56 -21 -46 -21 -55 -17 -1308 3 -1244 4
-1264 24 -1329 51 -161 120 -239 257 -285 l46 -16 0 -58 c0 -44 -4 -59 -16
-64 -9 -3 -348 -6 -755 -6 -726 0 -739 0 -759 20 -23 23 -27 78 -7 102 6 9 29
23 49 33 87 40 176 151 206 258 42 150 43 182 40 1542 l-3 1300 -33 75 c-44
103 -155 210 -216 210 -32 0 -47 70 -26 124 7 20 16 26 40 26 17 0 70 11 118
25 48 14 161 46 252 71 187 51 279 80 395 122 254 92 337 112 369 89 14 -10
16 -42 18 -231 2 -144 7 -221 14 -223 6 -2 24 18 42 45 46 71 173 188 288 265
147 98 234 134 429 178 118 27 354 19 483 -16z"/>
<path d="M38782 6585 c-45 -7 -115 -23 -155 -35 -99 -30 -268 -120 -350 -186
-38 -31 -74 -53 -81 -51 -9 4 -11 23 -8 64 5 66 -8 101 -53 143 -24 22 -37 25
-120 28 -112 5 -190 -13 -405 -93 -80 -29 -185 -65 -235 -80 -49 -14 -139 -42
-200 -62 -60 -19 -189 -55 -285 -79 -139 -36 -181 -51 -202 -71 l-28 -27 0
-156 c0 -180 2 -185 94 -208 27 -7 62 -22 79 -34 37 -27 75 -109 88 -190 6
-39 8 -553 7 -1353 -4 -1383 -1 -1310 -51 -1425 -27 -63 -86 -110 -154 -125
-18 -3 -46 -19 -63 -35 l-30 -28 0 -160 0 -160 35 -31 36 -31 885 0 886 0 34
34 34 34 0 151 c0 192 -16 231 -97 231 -37 1 -111 35 -146 68 -37 35 -66 91
-80 156 -16 74 -22 2456 -7 2511 46 162 163 262 320 272 155 11 254 -76 306
-268 16 -58 18 -181 24 -1414 8 -1442 4 -1347 55 -1570 56 -245 176 -459 358
-638 162 -158 365 -253 630 -291 207 -31 377 -16 576 50 141 47 201 81 298
169 128 118 177 206 212 383 31 154 -15 330 -116 442 -70 78 -176 135 -278
151 -76 11 -91 10 -173 -9 -100 -23 -167 -59 -225 -121 -21 -23 -43 -41 -48
-41 -5 0 -9 575 -9 1439 0 1400 -1 1442 -21 1572 -31 205 -40 241 -109 414
-51 131 -97 202 -202 316 -136 149 -276 238 -473 303 -166 55 -367 70 -553 41z
m451 -195 c168 -47 362 -167 456 -279 87 -105 168 -257 206 -387 60 -207 58
-161 65 -1914 l6 -1605 22 -75 c44 -142 115 -231 226 -285 40 -19 84 -35 98
-35 34 0 97 68 108 116 13 55 -4 82 -64 105 -88 33 -126 85 -126 173 0 222
217 364 418 272 72 -33 108 -70 148 -152 25 -52 29 -70 29 -155 0 -93 -2 -99
-44 -184 -59 -120 -137 -198 -251 -253 -134 -64 -194 -80 -342 -92 -333 -27
-601 67 -821 286 -158 158 -275 391 -309 619 -9 57 -14 464 -18 1440 -5 1077
-9 1369 -19 1405 -39 135 -57 180 -88 227 -52 79 -110 130 -193 170 -71 35
-81 37 -175 37 -101 1 -157 -12 -236 -52 -136 -70 -252 -207 -298 -353 -8 -25
-11 -384 -11 -1251 0 -1327 0 -1326 57 -1447 15 -31 51 -80 80 -109 49 -49
138 -102 174 -102 26 0 39 -22 39 -70 0 -25 -5 -51 -12 -58 -9 -9 -194 -12
-769 -12 -417 0 -764 3 -773 6 -18 7 -31 63 -22 99 4 17 21 32 52 46 55 26
138 100 170 151 32 50 63 135 77 206 7 38 12 480 14 1340 3 1253 3 1284 -17
1379 -32 156 -97 250 -207 304 -23 11 -47 26 -53 34 -16 19 -9 96 10 106 8 4
67 20 130 34 161 37 446 120 535 155 31 12 167 61 308 110 43 15 81 30 84 34
3 3 30 6 59 6 38 0 53 -4 58 -16 3 -9 6 -114 6 -235 0 -247 3 -254 63 -171 49
67 210 220 283 269 123 84 254 140 384 165 30 5 73 14 95 19 68 14 311 1 388
-21z"/>
</g>
</svg>
